<svg width="24" height="25" viewBox="0 0 24 25" fill="none" xmlns="http://www.w3.org/2000/svg">
<path d="M20.3035 0.674622C21.227 0.674622 22.1127 1.04149 22.7658 1.69452C23.4188 2.34755 23.7857 3.23324 23.7857 4.15676V20.7639C23.7857 21.6874 23.4188 22.5731 22.7658 23.2262C22.1127 23.8792 21.227 24.246 20.3035 24.246H3.69638C2.77285 24.246 1.88716 23.8792 1.23413 23.2262C0.581101 22.5731 0.214233 21.6874 0.214233 20.7639V4.15676C0.214233 3.23324 0.581101 2.34755 1.23413 1.69452C1.88716 1.04149 2.77285 0.674622 3.69638 0.674622H20.3035ZM11.9999 6.29962C11.8058 6.29963 11.6182 6.36995 11.4718 6.49759C11.3255 6.62522 11.2303 6.80153 11.2039 6.99391L11.1964 7.10319V17.8175L11.2039 17.9268C11.2303 18.1191 11.3255 18.2953 11.4719 18.4229C11.6182 18.5505 11.8058 18.6208 11.9999 18.6208C12.1941 18.6208 12.3817 18.5505 12.528 18.4229C12.6744 18.2953 12.7696 18.1191 12.796 17.9268L12.8035 17.8175V7.10319L12.796 6.99391C12.7696 6.80153 12.6744 6.62522 12.5281 6.49759C12.3817 6.36995 12.1941 6.29963 11.9999 6.29962V6.29962ZM17.6249 6.29962C17.4308 6.29963 17.2431 6.36995 17.0968 6.49759C16.9505 6.62522 16.8553 6.80153 16.8289 6.99391L16.8214 7.10319V17.8175L16.8289 17.9268C16.8553 18.1191 16.9505 18.2953 17.0969 18.4229C17.2432 18.5505 17.4308 18.6208 17.6249 18.6208C17.8191 18.6208 18.0067 18.5505 18.153 18.4229C18.2994 18.2953 18.3946 18.1191 18.421 17.9268L18.4285 17.8175V7.10319L18.421 6.99391C18.3946 6.80153 18.2994 6.62522 18.1531 6.49759C18.0067 6.36995 17.8191 6.29963 17.6249 6.29962ZM6.37495 6.29962C6.18076 6.29963 5.99315 6.36995 5.84681 6.49759C5.70046 6.62522 5.60528 6.80153 5.57888 6.99391L5.57138 7.10319V17.8175L5.57888 17.9268C5.60534 18.1191 5.70054 18.2953 5.84688 18.4229C5.99322 18.5505 6.1808 18.6208 6.37495 18.6208C6.56909 18.6208 6.75667 18.5505 6.90301 18.4229C7.04935 18.2953 7.14455 18.1191 7.17102 17.9268L7.17852 17.8175V7.10319L7.17102 6.99391C7.14461 6.80153 7.04943 6.62522 6.90309 6.49759C6.75674 6.36995 6.56913 6.29963 6.37495 6.29962Z" fill="#CB5656"/>
</svg>
